<svg width="143" height="42" viewBox="0 0 143 42" fill="none" xmlns="http://www.w3.org/2000/svg">
<path d="M89.8353 15.7668H92.3944C92.636 15.7668 92.8557 15.7001 93.0535 15.5661C93.2504 15.4328 93.413 15.2257 93.5403 14.9454C93.6673 14.6657 93.7314 14.3278 93.7314 13.9332C93.7314 13.5004 93.6612 13.1474 93.5209 12.8733C93.3806 12.5997 93.1996 12.399 92.977 12.2717C92.7538 12.1447 92.5214 12.0809 92.2795 12.0809H89.8353V15.7668ZM86.7031 22.8906V9.33063H92.4896C93.1393 9.33063 93.7314 9.4643 94.2658 9.73164C94.8008 9.99898 95.2684 10.3495 95.6698 10.7823C96.0708 11.215 96.3791 11.7052 96.5959 12.2526C96.8125 12.8003 96.9204 13.3604 96.9204 13.9332C96.9204 14.6971 96.7391 15.4328 96.3765 16.1392C96.0133 16.846 95.5104 17.4187 94.8678 17.8582C94.2245 18.2973 93.4701 18.517 92.6043 18.517H89.8353V22.8906H86.7031Z" fill="#0A0A0A"/>
<path d="M99.6143 22.8906V9.33095H102.727V14.5637H103.816L107.598 9.33095H111.055L106.203 15.9004L111.456 22.8906H107.674L103.721 17.4095H102.727V22.8906H99.6143Z" fill="#0A0A0A"/>
<path d="M114.126 22.8906V9.33095H117.278V18.4408L123.103 9.33095H126.044V22.8906H122.893V13.8379L117.125 22.8906H114.126Z" fill="#0A0A0A"/>
<path d="M61.1322 34.7746H63.6913C63.9332 34.7746 64.1526 34.7079 64.3504 34.5739C64.5473 34.4402 64.7098 34.2336 64.8371 33.9532C64.9641 33.6735 65.028 33.3357 65.028 32.941C65.028 32.5082 64.9581 32.1549 64.8178 31.8808C64.6778 31.6075 64.4965 31.4068 64.2739 31.2795C64.0507 31.1522 63.8183 31.0884 63.5767 31.0884H61.1322V34.7746ZM58 41.8984V28.3384H63.7865C64.4361 28.3384 65.028 28.4718 65.563 28.7395C66.0976 29.0068 66.5653 29.3573 66.9667 29.7898C67.3677 30.2228 67.6763 30.7131 67.8928 31.2601C68.1094 31.8081 68.2176 32.3682 68.2176 32.941C68.2176 33.7049 68.036 34.4402 67.6734 35.147C67.3102 35.8535 66.8073 36.4262 66.1646 36.866C65.5214 37.3051 64.767 37.5245 63.9015 37.5245H61.1322V41.8984H58Z" fill="#0A0A0A"/>
<path d="M73.2367 35.1166C73.2367 35.6389 73.3161 36.145 73.4751 36.6349C73.6342 37.1255 73.8634 37.5614 74.1629 37.9434C74.4619 38.3253 74.8309 38.6311 75.2706 38.86C75.7101 39.0892 76.2285 39.2035 76.8274 39.2035C77.4125 39.2035 77.9281 39.0861 78.3739 38.8505C78.8197 38.6152 79.189 38.2967 79.4817 37.8954C79.7744 37.4944 79.9941 37.0521 80.1405 36.5683C80.2869 36.0844 80.3602 35.5878 80.3602 35.0782C80.3602 34.5565 80.2805 34.0536 80.1215 33.5697C79.9624 33.0859 79.7332 32.6499 79.4341 32.2616C79.1347 31.8733 78.7622 31.571 78.3168 31.3542C77.871 31.1383 77.3681 31.0294 76.808 31.0294C76.2092 31.0294 75.6875 31.1443 75.2417 31.3732C74.7963 31.6028 74.427 31.9149 74.1343 32.3092C73.8412 32.7039 73.6186 33.1398 73.4659 33.6174C73.3129 34.0949 73.2367 34.5946 73.2367 35.1166ZM76.7699 41.9922C75.7767 41.9922 74.8693 41.7982 74.0482 41.4096C73.2268 41.0216 72.5169 40.4996 71.9187 39.8436C71.3199 39.1877 70.8618 38.4495 70.5436 37.6281C70.2255 36.807 70.0664 35.9571 70.0664 35.0782C70.0664 34.1746 70.2347 33.3151 70.5722 32.5001C70.9097 31.6857 71.3806 30.9567 71.9854 30.3137C72.5903 29.6708 73.3062 29.1644 74.1343 28.7951C74.9617 28.4262 75.8653 28.2414 76.8464 28.2414C77.8516 28.2414 78.7657 28.4354 79.5868 28.8237C80.4079 29.2123 81.1146 29.7375 81.7068 30.3995C82.2986 31.0618 82.7539 31.8031 83.0724 32.6242C83.3902 33.4456 83.5499 34.2832 83.5499 35.1357C83.5499 36.0402 83.3841 36.8994 83.0533 37.7138C82.7221 38.5292 82.251 39.2582 81.6401 39.9008C81.0289 40.544 80.3126 41.0533 79.4912 41.4286C78.6698 41.8042 77.763 41.9922 76.7699 41.9922Z" fill="#0A0A0A"/>
<path d="M85.5396 34.983C85.5396 34.1679 85.6891 33.3627 85.9882 32.5667C86.2873 31.7714 86.7331 31.0456 87.3252 30.3899C87.917 29.734 88.6336 29.2123 89.4738 28.8237C90.3142 28.4351 91.2626 28.2411 92.3195 28.2411C93.5924 28.2411 94.6973 28.5151 95.633 29.0624C96.5687 29.6101 97.272 30.3226 97.7435 31.2015L95.3181 32.9014C95.1269 32.4172 94.8624 32.0387 94.5256 31.7647C94.1877 31.4914 93.8188 31.2999 93.4175 31.1916C93.0165 31.0837 92.625 31.0294 92.243 31.0294C91.6575 31.0294 91.1416 31.1472 90.6958 31.3828C90.2504 31.6187 89.8811 31.9336 89.5884 32.3283C89.2953 32.723 89.0756 33.1624 88.9295 33.6459C88.7829 34.1301 88.7098 34.6077 88.7098 35.0782C88.7098 35.6259 88.7959 36.1479 88.9676 36.6445C89.1394 37.141 89.3814 37.5801 89.6935 37.9621C90.0053 38.3441 90.3809 38.6466 90.82 38.8695C91.2594 39.0924 91.7525 39.2032 92.3005 39.2032C92.6825 39.2032 93.0708 39.1432 93.4654 39.0222C93.8598 38.9013 94.2258 38.7006 94.5637 38.4209C94.9005 38.1405 95.1584 37.7713 95.3368 37.3128L97.9153 38.8406C97.6352 39.5029 97.1894 40.0697 96.5786 40.5406C95.9674 41.0117 95.2796 41.3715 94.5157 41.6198C93.7518 41.868 92.9879 41.9922 92.224 41.9922C91.2435 41.9922 90.3459 41.7915 89.5309 41.3905C88.7162 40.9892 88.0094 40.4548 87.4112 39.7858C86.8124 39.1175 86.3511 38.3666 86.0263 37.5325C85.7021 36.6984 85.5396 35.8488 85.5396 34.983Z" fill="#0A0A0A"/>
<path d="M99.4399 34.983C99.4399 34.1679 99.5895 33.3627 99.8886 32.5667C100.188 31.7714 100.633 31.0456 101.226 30.3899C101.817 29.734 102.534 29.2123 103.374 28.8237C104.215 28.4351 105.163 28.2411 106.22 28.2411C107.493 28.2411 108.598 28.5151 109.533 29.0624C110.469 29.6101 111.173 30.3226 111.644 31.2015L109.218 32.9014C109.027 32.4172 108.763 32.0387 108.426 31.7647C108.088 31.4914 107.719 31.2999 107.318 31.1916C106.917 31.0837 106.525 31.0294 106.143 31.0294C105.558 31.0294 105.042 31.1472 104.597 31.3828C104.151 31.6187 103.782 31.9336 103.489 32.3283C103.196 32.723 102.976 33.1624 102.83 33.6459C102.684 34.1301 102.61 34.6077 102.61 35.0782C102.61 35.6259 102.696 36.1479 102.868 36.6445C103.04 37.141 103.282 37.5801 103.594 37.9621C103.906 38.3441 104.281 38.6466 104.721 38.8695C105.16 39.0924 105.653 39.2032 106.201 39.2032C106.583 39.2032 106.971 39.1432 107.366 39.0222C107.76 38.9013 108.126 38.7006 108.464 38.4209C108.801 38.1405 109.059 37.7713 109.238 37.3128L111.816 38.8406C111.536 39.5029 111.09 40.0697 110.479 40.5406C109.868 41.0117 109.18 41.3715 108.416 41.6198C107.653 41.868 106.889 41.9922 106.125 41.9922C105.144 41.9922 104.247 41.7915 103.431 41.3905C102.617 40.9892 101.91 40.4548 101.312 39.7858C100.713 39.1175 100.252 38.3666 99.9267 37.5325C99.6025 36.6984 99.4399 35.8488 99.4399 34.983Z" fill="#0A0A0A"/>
<path d="M114.394 41.8984V28.3384H117.545V37.4486L123.37 28.3384H126.311V41.8984H123.16V32.8457L117.392 41.8984H114.394Z" fill="#0A0A0A"/>
<path d="M130.017 41.8984V28.3384H133.168V37.4486L138.993 28.3384H141.934V41.8984H138.783V32.8457L133.016 41.8984H130.017Z" fill="#0A0A0A"/>
<path d="M58.0522 22.8906V9.33095H69.3395V22.8906H66.2074V12.0809H61.1844V22.8906H58.0522Z" fill="#0A0A0A"/>
<path d="M79.653 17.715L78.0686 12.4819L76.4751 17.715H79.653ZM76.369 9.33095H79.7304L84.4289 22.8906H81.2202L80.301 19.854H75.8235L74.8983 22.8906H71.6899L76.369 9.33095Z" fill="#0A0A0A"/>
<path fill-rule="evenodd" clip-rule="evenodd" d="M13.5818 0H0V7.64661L24.3617 32.0081V10.7801L13.5818 0ZM17.311 0L24.3617 7.05112V0H17.311ZM26.9988 0V19.4839L42 4.48253V0H26.9988ZM42 8.21173L26.9988 23.2129V34.6452L34.3536 42H42V8.21173ZM30.6246 42L15.6985 27.0741H0V42H30.6246ZM0 24.4369H13.0613L0 11.3756V24.4369Z" fill="#39B462"/>
</svg>
