<svg width="247" height="51" viewBox="0 0 247 51" fill="none" xmlns="http://www.w3.org/2000/svg">
<path d="M232.361 33.998H236.219V43.2168H236.352L242.647 33.998H245.974V49.998H242.108V40.7637H242.007L235.634 49.998H232.361V33.998Z" fill="white"/>
<path d="M216.317 33.998H220.175V43.2168H220.308L226.603 33.998H229.93V49.998H226.064V40.7637H225.963L219.59 49.998H216.317V33.998Z" fill="white"/>
<path d="M214.105 39.7949H210.201C210.148 39.3939 210.042 39.0319 209.88 38.709C209.719 38.3861 209.505 38.11 209.24 37.8809C208.974 37.6517 208.659 37.4772 208.295 37.3574C207.936 37.2324 207.537 37.1699 207.1 37.1699C206.324 37.1699 205.655 37.36 205.093 37.7402C204.536 38.1204 204.106 38.6699 203.804 39.3887C203.507 40.1074 203.359 40.9772 203.359 41.998C203.359 43.0605 203.51 43.9512 203.812 44.6699C204.119 45.3835 204.549 45.9225 205.101 46.2871C205.658 46.6465 206.316 46.8262 207.077 46.8262C207.503 46.8262 207.891 46.7715 208.24 46.6621C208.594 46.5527 208.904 46.3939 209.17 46.1855C209.44 45.972 209.662 45.7142 209.833 45.4121C210.01 45.1048 210.133 44.7585 210.201 44.373L214.105 44.3965C214.038 45.1048 213.832 45.8027 213.488 46.4902C213.15 47.1777 212.684 47.8053 212.091 48.3731C211.497 48.9356 210.773 49.3835 209.919 49.7168C209.071 50.0501 208.097 50.2168 206.998 50.2168C205.551 50.2168 204.255 49.8991 203.109 49.2637C201.969 48.6231 201.068 47.6908 200.407 46.4668C199.746 45.2428 199.415 43.7533 199.415 41.998C199.415 40.2376 199.751 38.7454 200.423 37.5215C201.094 36.2975 202.003 35.3678 203.148 34.7324C204.294 34.097 205.577 33.7793 206.998 33.7793C207.967 33.7793 208.862 33.9147 209.685 34.1855C210.508 34.4512 211.231 34.8418 211.856 35.3574C212.481 35.8678 212.989 36.4954 213.379 37.2402C213.77 37.985 214.012 38.8366 214.105 39.7949Z" fill="white"/>
<path d="M197.374 39.7949H193.469C193.417 39.3939 193.31 39.0319 193.149 38.709C192.987 38.3861 192.774 38.11 192.508 37.8809C192.243 37.6517 191.928 37.4772 191.563 37.3574C191.204 37.2324 190.806 37.1699 190.369 37.1699C189.593 37.1699 188.924 37.36 188.361 37.7402C187.804 38.1204 187.375 38.6699 187.073 39.3887C186.776 40.1074 186.628 40.9772 186.628 41.998C186.628 43.0605 186.779 43.9512 187.081 44.6699C187.388 45.3835 187.817 45.9225 188.369 46.2871C188.926 46.6465 189.585 46.8262 190.345 46.8262C190.772 46.8262 191.16 46.7715 191.509 46.6621C191.863 46.5527 192.173 46.3939 192.438 46.1855C192.709 45.972 192.93 45.7142 193.102 45.4121C193.279 45.1048 193.401 44.7585 193.469 44.373L197.374 44.3965C197.306 45.1048 197.101 45.8027 196.757 46.4902C196.419 47.1777 195.953 47.8053 195.359 48.3731C194.766 48.9356 194.042 49.3835 193.188 49.7168C192.339 50.0501 191.366 50.2168 190.267 50.2168C188.82 50.2168 187.523 49.8991 186.378 49.2637C185.237 48.6231 184.337 47.6908 183.675 46.4668C183.014 45.2428 182.684 43.7533 182.684 41.998C182.684 40.2376 183.019 38.7454 183.691 37.5215C184.363 36.2975 185.271 35.3678 186.417 34.7324C187.562 34.097 188.846 33.7793 190.267 33.7793C191.235 33.7793 192.131 33.9147 192.954 34.1855C193.776 34.4512 194.5 34.8418 195.125 35.3574C195.75 35.8678 196.257 36.4954 196.648 37.2402C197.038 37.985 197.28 38.8366 197.374 39.7949Z" fill="white"/>
<path d="M180.598 41.998C180.598 43.7585 180.26 45.2507 179.583 46.4746C178.906 47.6986 177.99 48.6283 176.834 49.2637C175.683 49.8991 174.392 50.2168 172.96 50.2168C171.523 50.2168 170.229 49.8965 169.079 49.2559C167.928 48.6152 167.014 47.6856 166.338 46.4668C165.666 45.2428 165.33 43.7533 165.33 41.998C165.33 40.2376 165.666 38.7454 166.338 37.5215C167.014 36.2975 167.928 35.3678 169.079 34.7324C170.229 34.097 171.523 33.7793 172.96 33.7793C174.392 33.7793 175.683 34.097 176.834 34.7324C177.99 35.3678 178.906 36.2975 179.583 37.5215C180.26 38.7454 180.598 40.2376 180.598 41.998ZM176.647 41.998C176.647 40.9564 176.498 40.0762 176.201 39.3574C175.91 38.6387 175.488 38.0944 174.936 37.7246C174.39 37.3548 173.731 37.1699 172.96 37.1699C172.195 37.1699 171.536 37.3548 170.984 37.7246C170.433 38.0944 170.008 38.6387 169.711 39.3574C169.42 40.0762 169.274 40.9564 169.274 41.998C169.274 43.0397 169.42 43.9199 169.711 44.6387C170.008 45.3574 170.433 45.9017 170.984 46.2715C171.536 46.6413 172.195 46.8262 172.96 46.8262C173.731 46.8262 174.39 46.6413 174.936 46.2715C175.488 45.9017 175.91 45.3574 176.201 44.6387C176.498 43.9199 176.647 43.0397 176.647 41.998Z" fill="white"/>
<path d="M151.155 49.998V33.998H157.762C158.96 33.998 159.993 34.2324 160.863 34.7012C161.738 35.1647 162.412 35.8131 162.886 36.6465C163.36 37.4746 163.596 38.4381 163.596 39.5371C163.596 40.6413 163.354 41.6074 162.87 42.4355C162.391 43.2585 161.706 43.8965 160.816 44.3496C159.926 44.8027 158.869 45.0293 157.645 45.0293H153.569V41.9824H156.927C157.51 41.9824 157.997 41.8809 158.387 41.6777C158.783 41.4746 159.082 41.1908 159.285 40.8262C159.488 40.4564 159.59 40.0267 159.59 39.5371C159.59 39.0423 159.488 38.6152 159.285 38.2559C159.082 37.8913 158.783 37.61 158.387 37.4121C157.992 37.2142 157.505 37.1152 156.927 37.1152H155.021V49.998H151.155Z" fill="white"/>
<path d="M130.387 33.998H134.245V43.2168H134.378L140.672 33.998H143.999V49.998H140.133V40.7637H140.032L133.659 49.998H130.387V33.998Z" fill="white"/>
<path d="M124.157 49.998L119.127 43.3574H118.253V49.998H114.387V33.998H118.253V40.209H118.87L123.821 33.998H128.655L122.493 41.5527L128.976 49.998H124.157Z" fill="white"/>
<path d="M100.04 49.998V33.998H106.647C107.845 33.998 108.878 34.2324 109.748 34.7012C110.622 35.1647 111.297 35.8131 111.771 36.6465C112.244 37.4746 112.481 38.4381 112.481 39.5371C112.481 40.6413 112.239 41.6074 111.755 42.4355C111.276 43.2585 110.591 43.8965 109.701 44.3496C108.811 44.8027 107.754 45.0293 106.53 45.0293H102.453V41.9824H105.812C106.395 41.9824 106.882 41.8809 107.272 41.6777C107.668 41.4746 107.967 41.1908 108.17 40.8262C108.373 40.4564 108.475 40.0267 108.475 39.5371C108.475 39.0423 108.373 38.6152 108.17 38.2559C107.967 37.8913 107.668 37.61 107.272 37.4121C106.876 37.2142 106.389 37.1152 105.812 37.1152H103.906V49.998H100.04Z" fill="white"/>
<path d="M86.5328 49.998H82.3779L87.7746 33.998H92.9213L98.3179 49.998H94.1631L90.4065 38.0293H90.2816L86.5328 49.998ZM85.9783 43.7012H94.6629V46.6387H85.9783V43.7012Z" fill="white"/>
<path d="M80.0775 33.998V49.998H76.2663V37.0918H70.3308V49.998H66.5195V33.998H80.0775Z" fill="white"/>
<path d="M245.968 27.2096H244.755V20.2323H243.237C242.841 20.2323 242.519 20.2923 242.271 20.4123C242.023 20.5297 241.842 20.6993 241.727 20.921C241.612 21.1428 241.555 21.405 241.555 21.7076C241.555 22.0076 241.612 22.2646 241.727 22.4785C241.842 22.6924 242.022 22.8555 242.267 22.9677C242.512 23.0798 242.832 23.1359 243.225 23.1359H245.279V24.1768H243.112C242.494 24.1768 241.979 24.0738 241.567 23.8677C241.157 23.6616 240.849 23.3733 240.643 23.0029C240.44 22.6298 240.338 22.1981 240.338 21.7076C240.338 21.2145 240.44 20.7802 240.643 20.4045C240.847 20.0262 241.153 19.7301 241.563 19.5162C241.975 19.3023 242.49 19.1953 243.108 19.1953H245.968V27.2096ZM242.013 23.5938H243.351L241.406 27.2096H240.033L242.013 23.5938Z" fill="white"/>
<path d="M232.061 19.1953H233.258V25.0808H233.332L237.408 19.1953H238.527V27.2096H237.318V21.3319H237.244L233.175 27.2096H232.061V19.1953Z" fill="white"/>
<path d="M230.734 26.1413L230.628 29.1036H229.423V27.2096H228.86V26.1413H230.734ZM223.626 27.2096V19.1953H224.784V26.1608H228.649V19.1953H229.811V27.2096H223.626Z" fill="white"/>
<path d="M216.592 27.2096H215.309L218.192 19.1953H219.588L222.471 27.2096H221.188L218.923 20.651H218.861L216.592 27.2096ZM216.807 24.0712H220.969V25.0886H216.807V24.0712Z" fill="white"/>
<path d="M211.492 27.3193C210.955 27.3193 210.475 27.2267 210.053 27.0415C209.633 26.8563 209.3 26.5993 209.055 26.2706C208.813 25.9393 208.682 25.5558 208.664 25.1201H209.892C209.908 25.3575 209.988 25.5636 210.131 25.7384C210.277 25.9106 210.467 26.0436 210.702 26.1376C210.937 26.2315 211.198 26.2784 211.485 26.2784C211.8 26.2784 212.079 26.2236 212.322 26.1141C212.567 26.0045 212.759 25.8519 212.897 25.6562C213.035 25.458 213.104 25.2297 213.104 24.9714C213.104 24.7027 213.035 24.4666 212.897 24.2631C212.761 24.057 212.562 23.8953 212.298 23.7779C212.037 23.6605 211.722 23.6018 211.352 23.6018H210.675V22.6157H211.352C211.649 22.6157 211.91 22.5622 212.134 22.4552C212.361 22.3483 212.538 22.1996 212.666 22.0091C212.794 21.8161 212.858 21.5904 212.858 21.3321C212.858 21.0843 212.802 20.8691 212.689 20.6864C212.58 20.5012 212.423 20.3564 212.22 20.2521C212.019 20.1477 211.782 20.0955 211.508 20.0955C211.247 20.0955 211.003 20.1438 210.776 20.2403C210.552 20.3343 210.37 20.4699 210.229 20.6473C210.088 20.8221 210.012 21.0321 210.002 21.2773H208.832C208.845 20.8443 208.973 20.4634 209.216 20.1347C209.461 19.806 209.784 19.549 210.186 19.3638C210.587 19.1786 211.033 19.0859 211.524 19.0859C212.037 19.0859 212.481 19.1864 212.854 19.3873C213.229 19.5855 213.519 19.8503 213.722 20.1816C213.928 20.513 214.03 20.8756 214.027 21.2695C214.03 21.7182 213.905 22.0991 213.652 22.4122C213.401 22.7252 213.068 22.9352 212.65 23.0422V23.1048C213.182 23.1857 213.594 23.397 213.886 23.7388C214.181 24.0805 214.327 24.5044 214.325 25.0105C214.327 25.4514 214.205 25.8467 213.957 26.1963C213.712 26.5458 213.377 26.8211 212.952 27.0219C212.526 27.2202 212.04 27.3193 211.492 27.3193Z" fill="white"/>
<path d="M200.58 19.1953H201.777V25.0808H201.851L205.928 19.1953H207.046V27.2096H205.838V21.3319H205.763L201.695 27.2096H200.58V19.1953Z" fill="white"/>
<path d="M192.404 27.2096V19.1953H193.613V22.6781H197.607V19.1953H198.82V27.2096H197.607V23.7151H193.613V27.2096H192.404Z" fill="white"/>
<path d="M185.37 27.2096H184.087L186.97 19.1953H188.367L191.25 27.2096H189.967L187.702 20.651H187.639L185.37 27.2096ZM185.585 24.0712H189.747V25.0886H185.585V24.0712Z" fill="white"/>
<path d="M184.275 19.1953V20.2362H180.488V27.2096H179.279V19.1953H184.275Z" fill="white"/>
<path d="M172.234 27.2096V19.1953H175.09C175.713 19.1953 176.23 19.3088 176.639 19.5358C177.049 19.7627 177.355 20.0732 177.559 20.4671C177.762 20.8584 177.864 21.2993 177.864 21.7898C177.864 22.2828 177.761 22.7263 177.555 23.1203C177.351 23.5116 177.043 23.822 176.631 24.0516C176.222 24.2786 175.707 24.3921 175.086 24.3921H173.122V23.3668H174.977C175.37 23.3668 175.69 23.299 175.935 23.1633C176.18 23.025 176.36 22.8372 176.475 22.5998C176.59 22.3624 176.647 22.0924 176.647 21.7898C176.647 21.4872 176.59 21.2184 176.475 20.9837C176.36 20.7489 176.179 20.5649 175.931 20.4319C175.686 20.2988 175.363 20.2323 174.961 20.2323H173.443V27.2096H172.234Z" fill="white"/>
<path d="M170.729 23.2026C170.729 24.0583 170.573 24.794 170.26 25.4097C169.947 26.0228 169.518 26.495 168.973 26.8263C168.43 27.155 167.814 27.3193 167.122 27.3193C166.429 27.3193 165.809 27.155 165.264 26.8263C164.722 26.495 164.294 26.0215 163.981 25.4058C163.668 24.7901 163.512 24.0557 163.512 23.2026C163.512 22.347 163.668 21.6126 163.981 20.9995C164.294 20.3838 164.722 19.9116 165.264 19.5829C165.809 19.2516 166.429 19.0859 167.122 19.0859C167.814 19.0859 168.43 19.2516 168.973 19.5829C169.518 19.9116 169.947 20.3838 170.26 20.9995C170.573 21.6126 170.729 22.347 170.729 23.2026ZM169.532 23.2026C169.532 22.5504 169.427 22.0013 169.215 21.5552C169.007 21.1065 168.72 20.7673 168.355 20.5377C167.992 20.3056 167.581 20.1895 167.122 20.1895C166.661 20.1895 166.249 20.3056 165.886 20.5377C165.524 20.7673 165.237 21.1065 165.026 21.5552C164.817 22.0013 164.713 22.5504 164.713 23.2026C164.713 23.8548 164.817 24.4053 165.026 24.854C165.237 25.3001 165.524 25.6393 165.886 25.8715C166.249 26.101 166.661 26.2158 167.122 26.2158C167.581 26.2158 167.992 26.101 168.355 25.8715C168.72 25.6393 169.007 25.3001 169.215 24.854C169.427 24.4053 169.532 23.8548 169.532 23.2026Z" fill="white"/>
<path d="M159.088 27.2096H157.875V20.2323H156.357C155.961 20.2323 155.639 20.2923 155.391 20.4123C155.143 20.5297 154.962 20.6993 154.847 20.921C154.732 21.1428 154.675 21.405 154.675 21.7076C154.675 22.0076 154.732 22.2646 154.847 22.4785C154.962 22.6924 155.142 22.8555 155.387 22.9677C155.632 23.0798 155.952 23.1359 156.345 23.1359H158.399V24.1768H156.232C155.614 24.1768 155.099 24.0738 154.687 23.8677C154.277 23.6616 153.97 23.3733 153.764 23.0029C153.56 22.6298 153.458 22.1981 153.458 21.7076C153.458 21.2145 153.56 20.7802 153.764 20.4045C153.967 20.0262 154.273 19.7301 154.683 19.5162C155.095 19.3023 155.61 19.1953 156.228 19.1953H159.088V27.2096ZM155.133 23.5938H156.471L154.526 27.2096H153.153L155.133 23.5938Z" fill="white"/>
<path d="M146.371 27.2096H145.088L147.971 19.1953H149.368L152.251 27.2096H150.968L148.703 20.651H148.64L146.371 27.2096ZM146.586 24.0712H150.748V25.0886H146.586V24.0712Z" fill="white"/>
<path d="M137.521 27.2096V19.1953H138.729V22.6781H142.723V19.1953H143.936V27.2096H142.723V23.7151H138.729V27.2096H137.521Z" fill="white"/>
<path d="M129.345 27.2096V19.1953H130.554V22.6781H134.548V19.1953H135.76V27.2096H134.548V23.7151H130.554V27.2096H129.345Z" fill="white"/>
<path d="M122.706 27.2096V19.1953H127.729V20.2362H123.915V22.6781H127.467V23.7151H123.915V26.1687H127.776V27.2096H122.706Z" fill="white"/>
<path d="M115.501 27.2096V19.1953H118.435C119.003 19.1953 119.474 19.2892 119.847 19.4771C120.22 19.6623 120.499 19.914 120.684 20.2323C120.869 20.548 120.962 20.9041 120.962 21.3006C120.962 21.6345 120.901 21.9163 120.778 22.1459C120.656 22.3728 120.491 22.5555 120.285 22.6937C120.082 22.8294 119.858 22.9285 119.612 22.9911V23.0694C119.878 23.0824 120.138 23.1685 120.391 23.3277C120.646 23.4842 120.858 23.7072 121.025 23.9968C121.192 24.2864 121.275 24.6386 121.275 25.0534C121.275 25.463 121.178 25.8308 120.985 26.1569C120.795 26.4804 120.5 26.7374 120.101 26.9278C119.702 27.1157 119.193 27.2096 118.572 27.2096H115.501ZM116.71 26.1726H118.454C119.033 26.1726 119.448 26.0604 119.698 25.836C119.949 25.6117 120.074 25.3312 120.074 24.9947C120.074 24.7416 120.01 24.5095 119.882 24.2981C119.755 24.0868 119.572 23.9186 119.335 23.7933C119.1 23.6681 118.821 23.6055 118.498 23.6055H116.71V26.1726ZM116.71 22.6624H118.329C118.601 22.6624 118.844 22.6102 119.061 22.5059C119.28 22.4015 119.453 22.2554 119.581 22.0676C119.712 21.8772 119.777 21.6528 119.777 21.3945C119.777 21.0632 119.661 20.7854 119.429 20.561C119.196 20.3367 118.84 20.2245 118.361 20.2245H116.71V22.6624Z" fill="white"/>
<path d="M107.928 20.2362V19.1953H114.128V20.2362H111.628V27.2096H110.424V20.2362H107.928Z" fill="white"/>
<path d="M106.879 21.8017H105.659C105.612 21.5408 105.524 21.3113 105.397 21.113C105.269 20.9147 105.112 20.7464 104.927 20.6082C104.742 20.4699 104.535 20.3656 104.305 20.2951C104.078 20.2247 103.837 20.1895 103.581 20.1895C103.12 20.1895 102.706 20.3056 102.341 20.5377C101.979 20.7699 101.692 21.1104 101.481 21.5591C101.272 22.0078 101.168 22.5557 101.168 23.2026C101.168 23.8548 101.272 24.4053 101.481 24.854C101.692 25.3027 101.98 25.6419 102.345 25.8715C102.71 26.101 103.121 26.2158 103.577 26.2158C103.83 26.2158 104.07 26.1819 104.297 26.1141C104.527 26.0436 104.734 25.9406 104.919 25.8049C105.104 25.6693 105.261 25.5036 105.389 25.308C105.519 25.1097 105.609 24.8827 105.659 24.6271L106.879 24.631C106.814 25.0249 106.687 25.3875 106.5 25.7188C106.315 26.0475 106.076 26.3319 105.784 26.5719C105.494 26.8093 105.163 26.9932 104.79 27.1237C104.417 27.2541 104.01 27.3193 103.57 27.3193C102.876 27.3193 102.258 27.155 101.715 26.8263C101.173 26.495 100.745 26.0215 100.432 25.4058C100.122 24.7901 99.9668 24.0557 99.9668 23.2026C99.9668 22.347 100.123 21.6126 100.436 20.9995C100.749 20.3838 101.177 19.9116 101.719 19.5829C102.262 19.2516 102.879 19.0859 103.57 19.0859C103.995 19.0859 104.391 19.1472 104.759 19.2699C105.129 19.3899 105.462 19.5673 105.756 19.8021C106.051 20.0342 106.295 20.3186 106.488 20.6551C106.681 20.9891 106.811 21.3713 106.879 21.8017Z" fill="white"/>
<path d="M93.5859 27.2096V19.1953H98.6088V20.2362H94.7947V22.6781H98.3467V23.7151H94.7947V26.1687H98.6558V27.2096H93.5859Z" fill="white"/>
<path d="M92.2543 26.2L92.1447 29.0997H90.9985V27.2096H90.267V26.2H92.2543ZM82.5762 19.1953H83.7732V26.1608H86.4177V19.1953H87.6147V26.1608H90.2514V19.1953H91.4445V27.2096H82.5762V19.1953Z" fill="white"/>
<path d="M75.2422 27.2096V19.1953H80.2377V20.2362H76.451V22.4276H78.2426C78.8372 22.4276 79.3419 22.5242 79.7565 22.7172C80.1738 22.9103 80.492 23.1829 80.711 23.5351C80.9327 23.8873 81.0436 24.3021 81.0436 24.7795C81.0436 25.2569 80.9327 25.6782 80.711 26.0434C80.492 26.4087 80.1738 26.6943 79.7565 26.9004C79.3419 27.1065 78.8372 27.2096 78.2426 27.2096H75.2422ZM76.451 26.1921H78.2426C78.5869 26.1921 78.8777 26.1243 79.115 25.9887C79.3549 25.853 79.5362 25.6769 79.6587 25.4604C79.7839 25.2438 79.8465 25.0117 79.8465 24.7638C79.8465 24.4038 79.7083 24.0947 79.4319 23.8364C79.1554 23.5755 78.759 23.4451 78.2426 23.4451H76.451V26.1921Z" fill="white"/>
<path d="M73.737 23.2026C73.737 24.0583 73.5805 24.794 73.2676 25.4097C72.9546 26.0228 72.5256 26.495 71.9806 26.8263C71.4381 27.155 70.8213 27.3193 70.1302 27.3193C69.4365 27.3193 68.8171 27.155 68.2721 26.8263C67.7296 26.495 67.3019 26.0215 66.989 25.4058C66.676 24.7901 66.5195 24.0557 66.5195 23.2026C66.5195 22.347 66.676 21.6126 66.989 20.9995C67.3019 20.3838 67.7296 19.9116 68.2721 19.5829C68.8171 19.2516 69.4365 19.0859 70.1302 19.0859C70.8213 19.0859 71.4381 19.2516 71.9806 19.5829C72.5256 19.9116 72.9546 20.3838 73.2676 20.9995C73.5805 21.6126 73.737 22.347 73.737 23.2026ZM72.54 23.2026C72.54 22.5504 72.4343 22.0013 72.2231 21.5552C72.0145 21.1065 71.7276 20.7673 71.3625 20.5377C71 20.3056 70.5892 20.1895 70.1302 20.1895C69.6686 20.1895 69.2566 20.3056 68.8941 20.5377C68.5316 20.7673 68.2447 21.1065 68.0334 21.5552C67.8248 22.0013 67.7205 22.5504 67.7205 23.2026C67.7205 23.8548 67.8248 24.4053 68.0334 24.854C68.2447 25.3001 68.5316 25.6393 68.8941 25.8715C69.2566 26.101 69.6686 26.2158 70.1302 26.2158C70.5892 26.2158 71 26.101 71.3625 25.8715C71.7276 25.6393 72.0145 25.3001 72.2231 24.854C72.4343 24.4053 72.54 23.8548 72.54 23.2026Z" fill="white"/>
<path d="M177.241 13.8287H176.028V6.85146H174.51C174.114 6.85146 173.792 6.91146 173.544 7.03146C173.297 7.14886 173.115 7.31843 173 7.54018C172.886 7.76193 172.828 8.02411 172.828 8.32674C172.828 8.62675 172.886 8.88372 173 9.09764C173.115 9.31156 173.295 9.47461 173.54 9.58679C173.785 9.69897 174.105 9.75506 174.499 9.75506H176.553V10.796H174.385C173.767 10.796 173.252 10.6929 172.84 10.4868C172.431 10.2807 172.123 9.99246 171.917 9.62201C171.713 9.24895 171.612 8.81719 171.612 8.32674C171.612 7.83367 171.713 7.39931 171.917 7.02364C172.12 6.64536 172.427 6.34926 172.836 6.13534C173.248 5.92141 173.763 5.81445 174.381 5.81445H177.241V13.8287ZM173.286 10.2129H174.624L172.68 13.8287H171.307L173.286 10.2129Z" fill="white"/>
<path d="M164.524 13.8287H163.241L166.124 5.81445H167.521L170.404 13.8287H169.121L166.856 7.27017H166.793L164.524 13.8287ZM164.739 10.6903H168.902V11.7078H164.739V10.6903Z" fill="white"/>
<path d="M161.25 13.8287L158.559 10.2364H157.706V13.8287H156.497V5.81445H157.706V9.19938H158.101L161.129 5.81445H162.604L159.4 9.40287L162.725 13.8287H161.25Z" fill="white"/>
<path d="M155.05 8.42085H153.83C153.783 8.15997 153.695 7.93039 153.567 7.73212C153.44 7.53385 153.283 7.36559 153.098 7.22732C152.913 7.08905 152.706 6.9847 152.476 6.91426C152.249 6.84382 152.008 6.80861 151.752 6.80861C151.291 6.80861 150.877 6.9247 150.512 7.15688C150.15 7.38907 149.863 7.72951 149.652 8.17823C149.443 8.62695 149.339 9.1748 149.339 9.82178C149.339 10.474 149.443 11.0244 149.652 11.4732C149.863 11.9219 150.151 12.261 150.516 12.4906C150.881 12.7202 151.292 12.835 151.748 12.835C152.001 12.835 152.241 12.801 152.468 12.7332C152.698 12.6628 152.905 12.5597 153.09 12.4241C153.275 12.2884 153.432 12.1228 153.56 11.9271C153.69 11.7288 153.78 11.5019 153.83 11.2462L155.05 11.2501C154.985 11.644 154.858 12.0067 154.671 12.338C154.485 12.6667 154.247 12.951 153.955 13.1911C153.665 13.4285 153.334 13.6124 152.961 13.7428C152.588 13.8733 152.181 13.9385 151.741 13.9385C151.047 13.9385 150.429 13.7741 149.886 13.4454C149.344 13.1141 148.916 12.6406 148.603 12.0249C148.293 11.4092 148.138 10.6749 148.138 9.82178C148.138 8.96609 148.294 8.23171 148.607 7.61864C148.92 7.00296 149.348 6.53077 149.89 6.20206C150.433 5.87074 151.049 5.70508 151.741 5.70508C152.166 5.70508 152.562 5.76639 152.93 5.889C153.3 6.009 153.633 6.1864 153.927 6.4212C154.222 6.65338 154.466 6.93774 154.659 7.27428C154.852 7.6082 154.982 7.9904 155.05 8.42085Z" fill="white"/>
<path d="M140.164 5.81417H141.361V11.6996H141.435L145.512 5.81417H146.63V13.8284H145.422V7.95079H145.347L141.279 13.8284H140.164V5.81417ZM144.166 3.7793H145.128C145.128 4.22019 144.972 4.5789 144.659 4.85543C144.349 5.12936 143.929 5.26632 143.399 5.26632C142.872 5.26632 142.454 5.12936 142.143 4.85543C141.833 4.5789 141.678 4.22019 141.678 3.7793H142.636C142.636 3.97496 142.694 4.14844 142.809 4.29975C142.923 4.44846 143.12 4.52281 143.399 4.52281C143.673 4.52281 143.869 4.44846 143.986 4.29975C144.106 4.15105 144.166 3.97757 144.166 3.7793Z" fill="white"/>
<path d="M131.939 5.81445H133.137V11.6999H133.211L137.287 5.81445H138.406V13.8287H137.197V7.95107H137.123L133.054 13.8287H131.939V5.81445Z" fill="white"/>
<path d="M130.491 8.42085H129.271C129.224 8.15997 129.137 7.93039 129.009 7.73212C128.881 7.53385 128.725 7.36559 128.539 7.22732C128.354 7.08905 128.147 6.9847 127.917 6.91426C127.691 6.84382 127.449 6.80861 127.194 6.80861C126.732 6.80861 126.319 6.9247 125.954 7.15688C125.591 7.38907 125.304 7.72951 125.093 8.17823C124.884 8.62695 124.78 9.1748 124.78 9.82178C124.78 10.474 124.884 11.0244 125.093 11.4732C125.304 11.9219 125.592 12.261 125.958 12.4906C126.323 12.7202 126.733 12.835 127.19 12.835C127.443 12.835 127.683 12.801 127.91 12.7332C128.139 12.6628 128.346 12.5597 128.532 12.4241C128.717 12.2884 128.873 12.1228 129.001 11.9271C129.131 11.7288 129.221 11.5019 129.271 11.2462L130.491 11.2501C130.426 11.644 130.3 12.0067 130.112 12.338C129.927 12.6667 129.688 12.951 129.396 13.1911C129.107 13.4285 128.775 13.6124 128.402 13.7428C128.03 13.8733 127.623 13.9385 127.182 13.9385C126.488 13.9385 125.87 13.7741 125.328 13.4454C124.785 13.1141 124.358 12.6406 124.045 12.0249C123.734 11.4092 123.579 10.6749 123.579 9.82178C123.579 8.96609 123.736 8.23171 124.049 7.61864C124.361 7.00296 124.789 6.53077 125.332 6.20206C125.874 5.87074 126.491 5.70508 127.182 5.70508C127.607 5.70508 128.003 5.76639 128.371 5.889C128.742 6.009 129.074 6.1864 129.369 6.4212C129.663 6.65338 129.907 6.93774 130.1 7.27428C130.293 7.6082 130.424 7.9904 130.491 8.42085Z" fill="white"/>
<path d="M122.389 8.42085H121.168C121.121 8.15997 121.034 7.93039 120.906 7.73212C120.779 7.53385 120.622 7.36559 120.437 7.22732C120.252 7.08905 120.044 6.9847 119.815 6.91426C119.588 6.84382 119.347 6.80861 119.091 6.80861C118.63 6.80861 118.216 6.9247 117.851 7.15688C117.489 7.38907 117.202 7.72951 116.99 8.17823C116.782 8.62695 116.678 9.1748 116.678 9.82178C116.678 10.474 116.782 11.0244 116.99 11.4732C117.202 11.9219 117.49 12.261 117.855 12.4906C118.22 12.7202 118.631 12.835 119.087 12.835C119.34 12.835 119.58 12.801 119.807 12.7332C120.037 12.6628 120.244 12.5597 120.429 12.4241C120.614 12.2884 120.771 12.1228 120.898 11.9271C121.029 11.7288 121.119 11.5019 121.168 11.2462L122.389 11.2501C122.324 11.644 122.197 12.0067 122.009 12.338C121.824 12.6667 121.586 12.951 121.294 13.1911C121.004 13.4285 120.673 13.6124 120.3 13.7428C119.927 13.8733 119.52 13.9385 119.079 13.9385C118.386 13.9385 117.768 13.7741 117.225 13.4454C116.683 13.1141 116.255 12.6406 115.942 12.0249C115.632 11.4092 115.477 10.6749 115.477 9.82178C115.477 8.96609 115.633 8.23171 115.946 7.61864C116.259 7.00296 116.687 6.53077 117.229 6.20206C117.772 5.87074 118.388 5.70508 119.079 5.70508C119.505 5.70508 119.901 5.76639 120.269 5.889C120.639 6.009 120.972 6.1864 121.266 6.4212C121.561 6.65338 121.805 6.93774 121.998 7.27428C122.191 7.6082 122.321 7.9904 122.389 8.42085Z" fill="white"/>
<path d="M114.229 9.82178C114.229 10.6775 114.073 11.4132 113.76 12.0288C113.447 12.6419 113.018 13.1141 112.473 13.4454C111.93 13.7741 111.314 13.9385 110.622 13.9385C109.929 13.9385 109.309 13.7741 108.764 13.4454C108.222 13.1141 107.794 12.6406 107.481 12.0249C107.168 11.4092 107.012 10.6749 107.012 9.82178C107.012 8.96609 107.168 8.23171 107.481 7.61864C107.794 7.00296 108.222 6.53077 108.764 6.20206C109.309 5.87074 109.929 5.70508 110.622 5.70508C111.314 5.70508 111.93 5.87074 112.473 6.20206C113.018 6.53077 113.447 7.00296 113.76 7.61864C114.073 8.23171 114.229 8.96609 114.229 9.82178ZM113.032 9.82178C113.032 9.16958 112.927 8.62042 112.715 8.17432C112.507 7.7256 112.22 7.38646 111.855 7.15688C111.492 6.9247 111.081 6.80861 110.622 6.80861C110.161 6.80861 109.749 6.9247 109.386 7.15688C109.024 7.38646 108.737 7.7256 108.526 8.17432C108.317 8.62042 108.213 9.16958 108.213 9.82178C108.213 10.474 108.317 11.0244 108.526 11.4732C108.737 11.9193 109.024 12.2584 109.386 12.4906C109.749 12.7202 110.161 12.835 110.622 12.835C111.081 12.835 111.492 12.7202 111.855 12.4906C112.22 12.2584 112.507 11.9193 112.715 11.4732C112.927 11.0244 113.032 10.474 113.032 9.82178Z" fill="white"/>
<path d="M100.226 13.8287V5.81445H103.081C103.705 5.81445 104.221 5.92794 104.63 6.1549C105.04 6.38187 105.346 6.69232 105.55 7.08625C105.753 7.47757 105.855 7.91846 105.855 8.40891C105.855 8.90198 105.752 9.34548 105.546 9.73941C105.342 10.1307 105.035 10.4412 104.623 10.6708C104.213 10.8977 103.698 11.0112 103.077 11.0112H101.114V9.98594H102.968C103.362 9.98594 103.681 9.91811 103.926 9.78245C104.171 9.64419 104.351 9.45635 104.466 9.21895C104.581 8.98155 104.638 8.71154 104.638 8.40891C104.638 8.10629 104.581 7.83759 104.466 7.60279C104.351 7.368 104.17 7.18408 103.922 7.05103C103.677 6.91798 103.354 6.85146 102.952 6.85146H101.434V13.8287H100.226Z" fill="white"/>
<path d="M93.5859 13.8287V5.81445H98.6088V6.85537H94.7947V9.29721H98.3467V10.3342H94.7947V12.7878H98.6558V13.8287H93.5859Z" fill="white"/>
<path d="M92.2543 12.8191L92.1447 15.7188H90.9985V13.8287H90.267V12.8191H92.2543ZM82.5762 5.81445H83.7732V12.78H86.4177V5.81445H87.6147V12.78H90.2514V5.81445H91.4445V13.8287H82.5762V5.81445Z" fill="white"/>
<path d="M75.2422 13.8287V5.81445H80.2377V6.85537H76.451V9.04677H78.2426C78.8372 9.04677 79.3419 9.14329 79.7565 9.33635C80.1738 9.5294 80.492 9.80202 80.711 10.1542C80.9327 10.5064 81.0436 10.9212 81.0436 11.3986C81.0436 11.876 80.9327 12.2973 80.711 12.6626C80.492 13.0278 80.1738 13.3135 79.7565 13.5196C79.3419 13.7257 78.8372 13.8287 78.2426 13.8287H75.2422ZM76.451 12.8113H78.2426C78.5869 12.8113 78.8777 12.7435 79.115 12.6078C79.3549 12.4721 79.5362 12.296 79.6587 12.0795C79.7839 11.863 79.8465 11.6308 79.8465 11.383C79.8465 11.0229 79.7083 10.7138 79.4319 10.4555C79.1554 10.1946 78.759 10.0642 78.2426 10.0642H76.451V12.8113Z" fill="white"/>
<path d="M73.737 9.82178C73.737 10.6775 73.5805 11.4132 73.2676 12.0288C72.9546 12.6419 72.5256 13.1141 71.9806 13.4454C71.4381 13.7741 70.8213 13.9385 70.1302 13.9385C69.4365 13.9385 68.8171 13.7741 68.2721 13.4454C67.7296 13.1141 67.3019 12.6406 66.989 12.0249C66.676 11.4092 66.5195 10.6749 66.5195 9.82178C66.5195 8.96609 66.676 8.23171 66.989 7.61864C67.3019 7.00296 67.7296 6.53077 68.2721 6.20206C68.8171 5.87074 69.4365 5.70508 70.1302 5.70508C70.8213 5.70508 71.4381 5.87074 71.9806 6.20206C72.5256 6.53077 72.9546 7.00296 73.2676 7.61864C73.5805 8.23171 73.737 8.96609 73.737 9.82178ZM72.54 9.82178C72.54 9.16958 72.4343 8.62042 72.2231 8.17432C72.0145 7.7256 71.7276 7.38646 71.3625 7.15688C71 6.9247 70.5892 6.80861 70.1302 6.80861C69.6686 6.80861 69.2566 6.9247 68.8941 7.15688C68.5316 7.38646 68.2447 7.7256 68.0334 8.17432C67.8248 8.62042 67.7205 9.16958 67.7205 9.82178C67.7205 10.474 67.8248 11.0244 68.0334 11.4732C68.2447 11.9193 68.5316 12.2584 68.8941 12.4906C69.2566 12.7202 69.6686 12.835 70.1302 12.835C70.5892 12.835 71 12.7202 71.3625 12.4906C71.7276 12.2584 72.0145 11.9193 72.2231 11.4732C72.4343 11.0244 72.54 10.474 72.54 9.82178Z" fill="white"/>
<path d="M0.541016 9.10311V0H16.7044L29.5334 12.8335V38.1049L0.541016 9.10311Z" fill="#0094CC"/>
<path d="M41.4245 50L50.5244 50L50.5244 9.77586L32.6718 27.6344V41.2443L41.4245 50Z" fill="#0094CC"/>
<path d="M50.5255 5.33635L32.6728 23.1952V0H50.5255L50.5255 5.33635Z" fill="#E4E4E4"/>
<path d="M29.5324 8.39217L21.1436 0H29.5324V8.39217Z" fill="#E4E4E4"/>
<path d="M37.0289 50.0008H0.541016V32.2316H19.2234L36.9868 50.0006L37.0289 50.0008Z" fill="#D21A0A"/>
<path d="M0.541016 29.0922H16.0851L0.541016 13.543V29.0922Z" fill="#D21A0A"/>
</svg>
