<svg width="136" height="40" viewBox="0 0 136 40" fill="none" xmlns="http://www.w3.org/2000/svg">
<path d="M85.5572 15.0171H87.9945C88.2246 15.0171 88.4338 14.9536 88.6222 14.826C88.8097 14.699 88.9645 14.5019 89.0858 14.2349C89.2067 13.9685 89.2678 13.6467 89.2678 13.2709C89.2678 12.8587 89.201 12.5225 89.0673 12.2615C88.9337 12.0008 88.7613 11.8097 88.5494 11.6885C88.3368 11.5675 88.1154 11.5067 87.885 11.5067H85.5572V15.0171ZM82.5742 21.8018V8.88748H88.0852C88.7039 8.88748 89.2678 9.01478 89.7767 9.26939C90.2863 9.524 90.7317 9.85783 91.1139 10.27C91.4958 10.6821 91.7894 11.149 91.9959 11.6703C92.2022 12.1919 92.305 12.7254 92.305 13.2709C92.305 13.9984 92.1323 14.699 91.787 15.3718C91.4411 16.0449 90.9621 16.5904 90.3501 17.0089C89.7374 17.4271 89.019 17.6364 88.1944 17.6364H85.5572V21.8018H82.5742Z" fill="white"/>
<path d="M94.8711 21.8018V8.88778H97.836V13.8714H98.8729L102.475 8.88778H105.767L101.146 15.1444L106.149 21.8018H102.547L98.7821 16.5817H97.836V21.8018H94.8711Z" fill="white"/>
<path d="M108.692 21.8018V8.88778H111.694V17.5638L117.241 8.88778H120.042V21.8018H117.041V13.1801L111.548 21.8018H108.692Z" fill="white"/>
<path d="M58.2213 33.1226H60.6585C60.889 33.1226 61.0979 33.0591 61.2863 32.9315C61.4738 32.8042 61.6286 32.6073 61.7498 32.3403C61.8708 32.0739 61.9316 31.7522 61.9316 31.3763C61.9316 30.9642 61.8651 30.6276 61.7314 30.3667C61.5981 30.1063 61.4254 29.9152 61.2134 29.7939C61.0008 29.6727 60.7795 29.6119 60.5494 29.6119H58.2213V33.1226ZM55.2383 39.9072V26.9929H60.7493C61.3679 26.9929 61.9316 27.1199 62.4411 27.3749C62.9503 27.6295 63.3957 27.9633 63.7779 28.3751C64.1599 28.7876 64.4538 29.2545 64.66 29.7755C64.8662 30.2974 64.9693 30.8308 64.9693 31.3763C64.9693 32.1039 64.7964 32.8042 64.4511 33.4773C64.1051 34.1501 63.6261 34.6956 63.0141 35.1144C62.4015 35.5326 61.683 35.7416 60.8587 35.7416H58.2213V39.9072H55.2383Z" fill="white"/>
<path d="M69.7498 33.4509C69.7498 33.9483 69.8254 34.4303 69.9769 34.8969C70.1284 35.3641 70.3467 35.7792 70.6318 36.143C70.9167 36.5068 71.2681 36.798 71.6869 37.016C72.1054 37.2343 72.5992 37.3432 73.1695 37.3432C73.7268 37.3432 74.2178 37.2313 74.6424 37.0069C75.0669 36.7829 75.4186 36.4796 75.6974 36.0973C75.9762 35.7154 76.1855 35.2942 76.3249 34.8334C76.4643 34.3725 76.5341 33.8996 76.5341 33.4143C76.5341 32.9175 76.4582 32.4385 76.3067 31.9776C76.1552 31.5168 75.9369 31.1016 75.6521 30.7318C75.3669 30.362 75.0122 30.0741 74.588 29.8676C74.1634 29.662 73.6844 29.5583 73.151 29.5583C72.5807 29.5583 72.0839 29.6677 71.6594 29.8857C71.2351 30.1044 70.8834 30.4016 70.6046 30.7772C70.3255 31.153 70.1136 31.5682 69.9681 32.023C69.8224 32.4778 69.7498 32.9537 69.7498 33.4509ZM73.1147 39.999C72.1689 39.999 71.3047 39.8143 70.5227 39.4441C69.7404 39.0746 69.0643 38.5775 68.4946 37.9528C67.9243 37.3281 67.4879 36.625 67.185 35.8427C66.882 35.0608 66.7305 34.2513 66.7305 33.4143C66.7305 32.5537 66.8907 31.7351 67.2122 30.9589C67.5336 30.1833 67.982 29.489 68.5581 28.8767C69.1341 28.2643 69.816 27.782 70.6046 27.4304C71.3926 27.079 72.2532 26.903 73.1876 26.903C74.145 26.903 75.0155 27.0878 75.7975 27.4576C76.5795 27.8277 77.2526 28.3278 77.8165 28.9583C78.3802 29.5891 78.8138 30.2952 79.1171 31.0771C79.4198 31.8594 79.5719 32.6571 79.5719 33.469C79.5719 34.3305 79.414 35.1488 79.0989 35.9244C78.7836 36.7009 78.3348 37.3952 77.753 38.0072C77.1709 38.6198 76.4888 39.1049 75.7065 39.4623C74.9242 39.82 74.0606 39.999 73.1147 39.999Z" fill="white"/>
<path d="M81.4668 33.3236C81.4668 32.5473 81.6092 31.7805 81.8941 31.0224C82.1789 30.2649 82.6035 29.5737 83.1674 28.9493C83.7311 28.3245 84.4135 27.8277 85.2137 27.4576C86.0141 27.0875 86.9173 26.9027 87.9239 26.9027C89.1362 26.9027 90.1885 27.1637 91.0796 27.685C91.9708 28.2066 92.6405 28.8851 93.0896 29.7221L90.7797 31.3411C90.5976 30.88 90.3457 30.5195 90.0249 30.2586C89.7032 29.9982 89.3518 29.8159 88.9696 29.7128C88.5877 29.61 88.2148 29.5583 87.8511 29.5583C87.2935 29.5583 86.8021 29.6704 86.3775 29.8948C85.9533 30.1195 85.6016 30.4194 85.3228 30.7953C85.0437 31.1712 84.8345 31.5897 84.6954 32.0502C84.5557 32.5114 84.4861 32.9661 84.4861 33.4143C84.4861 33.9359 84.5681 34.433 84.7317 34.9059C84.8952 35.3789 85.1257 35.7971 85.4229 36.1608C85.7199 36.5246 86.0776 36.8128 86.4958 37.0251C86.9143 37.2373 87.3839 37.3429 87.9058 37.3429C88.2696 37.3429 88.6394 37.2857 89.0152 37.1705C89.3908 37.0553 89.7395 36.8642 90.0612 36.5978C90.382 36.3308 90.6276 35.9791 90.7975 35.5425L93.2532 36.9975C92.9865 37.6283 92.5619 38.1681 91.9801 38.6165C91.398 39.0653 90.7431 39.4079 90.0155 39.6443C89.288 39.8808 88.5605 39.999 87.8329 39.999C86.8992 39.999 86.0443 39.8079 85.2681 39.426C84.4922 39.0438 83.8191 38.5349 83.2494 37.8977C82.6791 37.2612 82.2397 36.5461 81.9304 35.7517C81.6216 34.9573 81.4668 34.1482 81.4668 33.3236Z" fill="white"/>
<path d="M94.7051 33.3236C94.7051 32.5473 94.8475 31.7805 95.1323 31.0224C95.4172 30.2649 95.8417 29.5737 96.4057 28.9493C96.9693 28.3245 97.6518 27.8277 98.4519 27.4576C99.2524 27.0875 100.156 26.9027 101.162 26.9027C102.374 26.9027 103.427 27.1637 104.318 27.685C105.209 28.2066 105.879 28.8851 106.328 29.7221L104.018 31.3411C103.836 30.88 103.584 30.5195 103.263 30.2586C102.942 29.9982 102.59 29.8159 102.208 29.7128C101.826 29.61 101.453 29.5583 101.089 29.5583C100.532 29.5583 100.041 29.6704 99.6161 29.8948C99.1916 30.1195 98.8399 30.4194 98.5611 30.7953C98.282 31.1712 98.0727 31.5897 97.9336 32.0502C97.7942 32.5114 97.7244 32.9661 97.7244 33.4143C97.7244 33.9359 97.8063 34.433 97.9699 34.9059C98.1335 35.3789 98.3639 35.7971 98.6612 36.1608C98.9581 36.5246 99.3159 36.8128 99.7344 37.0251C100.153 37.2373 100.622 37.3429 101.144 37.3429C101.508 37.3429 101.878 37.2857 102.254 37.1705C102.629 37.0553 102.978 36.8642 103.299 36.5978C103.62 36.3308 103.866 35.9791 104.036 35.5425L106.492 36.9975C106.225 37.6283 105.8 38.1681 105.219 38.6165C104.636 39.0653 103.982 39.4079 103.254 39.6443C102.527 39.8808 101.799 39.999 101.072 39.999C100.137 39.999 99.2829 39.8079 98.5064 39.426C97.7304 39.0438 97.0573 38.5349 96.4876 37.8977C95.9176 37.2612 95.4783 36.5461 95.1686 35.7517C94.8599 34.9573 94.7051 34.1482 94.7051 33.3236Z" fill="white"/>
<path d="M108.946 39.9072V26.9929H111.947V35.6693L117.495 26.9929H120.296V39.9072H117.295V31.2856L111.802 39.9072H108.946Z" fill="white"/>
<path d="M123.826 39.9072V26.9929H126.827V35.6693L132.375 26.9929H135.176V39.9072H132.175V31.2856L126.682 39.9072H123.826Z" fill="white"/>
<path d="M55.2881 21.8027V8.88875H66.0379V21.8027H63.0549V11.5077H58.2711V21.8027H55.2881Z" fill="white"/>
<path d="M75.8602 16.8735L74.3513 11.8896L72.8336 16.8735H75.8602ZM72.7326 8.88875H75.934L80.4087 21.8027H77.3528L76.4774 18.9107H72.2131L71.332 21.8027H68.2764L72.7326 8.88875Z" fill="white"/>
<path fill-rule="evenodd" clip-rule="evenodd" d="M12.935 0H0V7.28249L23.2016 30.4839V10.2668L12.935 0ZM16.4867 0L23.2016 6.71535V0H16.4867ZM25.7131 0V18.5561L40 4.26908V0H25.7131ZM40 7.82069L25.7131 22.1075V32.9954L32.7177 40H40V7.82069ZM29.1663 40L14.9509 25.7848H0V40H29.1663ZM0 23.2733H12.4394L0 10.8339V23.2733Z" fill="#39B462"/>
</svg>
