<svg width="142" height="46" viewBox="0 0 142 46" fill="none" xmlns="http://www.w3.org/2000/svg">
<path d="M89.8353 17.7677H92.3944C92.636 17.7677 92.8557 17.7011 93.0535 17.5671C93.2504 17.4337 93.413 17.2267 93.5403 16.9464C93.6673 16.6666 93.7314 16.3288 93.7314 15.9342C93.7314 15.5014 93.6612 15.1483 93.5209 14.8743C93.3806 14.6006 93.1996 14.4 92.977 14.2727C92.7538 14.1457 92.5214 14.0818 92.2795 14.0818H89.8353V17.7677ZM86.7031 24.8916V11.3316H92.4896C93.1393 11.3316 93.7314 11.4653 94.2658 11.7326C94.8008 12 95.2684 12.3505 95.6698 12.7832C96.0708 13.216 96.3791 13.7062 96.5959 14.2536C96.8125 14.8013 96.9204 15.3614 96.9204 15.9342C96.9204 16.6981 96.7391 17.4337 96.3765 18.1402C96.0133 18.8469 95.5104 19.4197 94.8678 19.8592C94.2245 20.2983 93.4701 20.518 92.6043 20.518H89.8353V24.8916H86.7031Z" fill="white"/>
<path d="M99.6143 24.8916V11.3319H102.727V16.5647H103.816L107.598 11.3319H111.055L106.203 17.9014L111.456 24.8916H107.674L103.721 19.4105H102.727V24.8916H99.6143Z" fill="white"/>
<path d="M114.126 24.8916V11.3319H117.278V20.4418L123.103 11.3319H126.044V24.8916H122.893V15.8389L117.125 24.8916H114.126Z" fill="white"/>
<path d="M61.1322 36.7795H63.6913C63.9332 36.7795 64.1526 36.7128 64.3504 36.5788C64.5473 36.4451 64.7098 36.2384 64.8371 35.9581C64.9641 35.6784 65.028 35.3405 65.028 34.9459C65.028 34.5131 64.9581 34.1597 64.8178 33.8857C64.6778 33.6124 64.4965 33.4117 64.2739 33.2844C64.0507 33.1571 63.8183 33.0932 63.5767 33.0932H61.1322V36.7795ZM58 43.9033V30.3433H63.7865C64.4361 30.3433 65.028 30.4767 65.563 30.7443C66.0976 31.0117 66.5653 31.3622 66.9667 31.7946C67.3677 32.2277 67.6763 32.7179 67.8928 33.265C68.1094 33.813 68.2176 34.3731 68.2176 34.9459C68.2176 35.7098 68.036 36.4451 67.6734 37.1519C67.3102 37.8583 66.8073 38.4311 66.1646 38.8709C65.5214 39.31 64.767 39.5294 63.9015 39.5294H61.1322V43.9033H58Z" fill="white"/>
<path d="M73.2367 37.1225C73.2367 37.6448 73.3161 38.1509 73.4751 38.6408C73.6342 39.1313 73.8634 39.5673 74.1629 39.9492C74.4619 40.3312 74.8309 40.6369 75.2706 40.8659C75.7101 41.0951 76.2285 41.2094 76.8274 41.2094C77.4125 41.2094 77.9281 41.0919 78.3739 40.8563C78.8197 40.6211 79.189 40.3026 79.4817 39.9013C79.7744 39.5003 79.9941 39.058 80.1405 38.5741C80.2869 38.0902 80.3602 37.5937 80.3602 37.0841C80.3602 36.5624 80.2805 36.0595 80.1215 35.5756C79.9624 35.0917 79.7332 34.6558 79.4341 34.2675C79.1347 33.8792 78.7622 33.5769 78.3168 33.36C77.871 33.1441 77.3681 33.0352 76.808 33.0352C76.2092 33.0352 75.6875 33.1502 75.2417 33.3791C74.7963 33.6087 74.427 33.9208 74.1343 34.3151C73.8412 34.7098 73.6186 35.1457 73.4659 35.6232C73.3129 36.1007 73.2367 36.6005 73.2367 37.1225ZM76.7699 43.998C75.7767 43.998 74.8693 43.8041 74.0482 43.4154C73.2268 43.0274 72.5169 42.5055 71.9187 41.8495C71.3199 41.1935 70.8618 40.4553 70.5436 39.6339C70.2255 38.8129 70.0664 37.9629 70.0664 37.0841C70.0664 36.1804 70.2347 35.321 70.5722 34.5059C70.9097 33.6915 71.3806 32.9625 71.9854 32.3196C72.5903 31.6766 73.3062 31.1702 74.1343 30.801C74.9617 30.432 75.8653 30.2472 76.8464 30.2472C77.8516 30.2472 78.7657 30.4412 79.5868 30.8295C80.4079 31.2182 81.1146 31.7433 81.7068 32.4053C82.2986 33.0676 82.7539 33.809 83.0724 34.6301C83.3902 35.4515 83.5499 36.289 83.5499 37.1415C83.5499 38.0461 83.3841 38.9053 83.0533 39.7197C82.7221 40.535 82.251 41.264 81.6401 41.9066C81.0289 42.5499 80.3126 43.0592 79.4912 43.4345C78.6698 43.8101 77.763 43.998 76.7699 43.998Z" fill="white"/>
<path d="M85.5396 36.9888C85.5396 36.1738 85.6891 35.3686 85.9882 34.5726C86.2873 33.7772 86.7331 33.0514 87.3252 32.3958C87.917 31.7398 88.6336 31.2182 89.4738 30.8295C90.3142 30.4409 91.2626 30.2469 92.3195 30.2469C93.5924 30.2469 94.6973 30.5209 95.633 31.0683C96.5687 31.616 97.272 32.3285 97.7435 33.2073L95.3181 34.9072C95.1269 34.4231 94.8624 34.0446 94.5256 33.7706C94.1877 33.4972 93.8188 33.3058 93.4175 33.1975C93.0165 33.0895 92.625 33.0352 92.243 33.0352C91.6575 33.0352 91.1416 33.153 90.6958 33.3886C90.2504 33.6245 89.8811 33.9395 89.5884 34.3342C89.2953 34.7288 89.0756 35.1682 88.9295 35.6518C88.7829 36.136 88.7098 36.6135 88.7098 37.0841C88.7098 37.6318 88.7959 38.1537 88.9676 38.6503C89.1394 39.1469 89.3814 39.586 89.6935 39.968C90.0053 40.3499 90.3809 40.6525 90.82 40.8754C91.2594 41.0983 91.7525 41.2091 92.3005 41.2091C92.6825 41.2091 93.0708 41.1491 93.4654 41.0281C93.8598 40.9071 94.2258 40.7065 94.5637 40.4268C94.9005 40.1464 95.1584 39.7771 95.3368 39.3187L97.9153 40.8465C97.6352 41.5088 97.1894 42.0756 96.5786 42.5464C95.9674 43.0176 95.2796 43.3773 94.5157 43.6256C93.7518 43.8739 92.9879 43.998 92.224 43.998C91.2435 43.998 90.3459 43.7974 89.5309 43.3964C88.7162 42.995 88.0094 42.4607 87.4112 41.7917C86.8124 41.1234 86.3511 40.3725 86.0263 39.5384C85.7021 38.7043 85.5396 37.8546 85.5396 36.9888Z" fill="white"/>
<path d="M99.4399 36.9888C99.4399 36.1738 99.5895 35.3686 99.8886 34.5726C100.188 33.7772 100.633 33.0514 101.226 32.3958C101.817 31.7398 102.534 31.2182 103.374 30.8295C104.215 30.4409 105.163 30.2469 106.22 30.2469C107.493 30.2469 108.598 30.5209 109.533 31.0683C110.469 31.616 111.173 32.3285 111.644 33.2073L109.218 34.9072C109.027 34.4231 108.763 34.0446 108.426 33.7706C108.088 33.4972 107.719 33.3058 107.318 33.1975C106.917 33.0895 106.525 33.0352 106.143 33.0352C105.558 33.0352 105.042 33.153 104.597 33.3886C104.151 33.6245 103.782 33.9395 103.489 34.3342C103.196 34.7288 102.976 35.1682 102.83 35.6518C102.684 36.136 102.61 36.6135 102.61 37.0841C102.61 37.6318 102.696 38.1537 102.868 38.6503C103.04 39.1469 103.282 39.586 103.594 39.968C103.906 40.3499 104.281 40.6525 104.721 40.8754C105.16 41.0983 105.653 41.2091 106.201 41.2091C106.583 41.2091 106.971 41.1491 107.366 41.0281C107.76 40.9071 108.126 40.7065 108.464 40.4268C108.801 40.1464 109.059 39.7771 109.238 39.3187L111.816 40.8465C111.536 41.5088 111.09 42.0756 110.479 42.5464C109.868 43.0176 109.18 43.3773 108.416 43.6256C107.653 43.8739 106.889 43.998 106.125 43.998C105.144 43.998 104.247 43.7974 103.431 43.3964C102.617 42.995 101.91 42.4607 101.312 41.7917C100.713 41.1234 100.252 40.3725 99.9267 39.5384C99.6025 38.7043 99.4399 37.8546 99.4399 36.9888Z" fill="white"/>
<path d="M114.394 43.9023V30.3423H117.545V39.4525L123.37 30.3423H126.311V43.9023H123.16V34.8496L117.392 43.9023H114.394Z" fill="white"/>
<path d="M130.017 43.9023V30.3423H133.168V39.4525L138.993 30.3423H141.934V43.9023H138.783V34.8496L133.016 43.9023H130.017Z" fill="white"/>
<path d="M58.0522 24.8926V11.3329H69.3395V24.8926H66.2074V14.0828H61.1844V24.8926H58.0522Z" fill="white"/>
<path d="M79.653 19.7169L78.0686 14.4838L76.4751 19.7169H79.653ZM76.369 11.3329H79.7304L84.4289 24.8926H81.2202L80.301 21.856H75.8235L74.8983 24.8926H71.6899L76.369 11.3329Z" fill="white"/>
<path fill-rule="evenodd" clip-rule="evenodd" d="M13.5818 2H0V9.64661L24.3617 34.0081V12.7801L13.5818 2ZM17.311 2L24.3617 9.05112V2H17.311ZM26.9988 2V21.4839L42 6.48253V2H26.9988ZM42 10.2117L26.9988 25.2129V36.6452L34.3536 44H42V10.2117ZM30.6246 44L15.6985 29.0741H0V44H30.6246ZM0 26.4369H13.0613L0 13.3756V26.4369Z" fill="#39B462"/>
</svg>
